<svg width="1280" height="720" xmlns="http://www.w3.org/2000/svg" xmlns:xlink="http://www.w3.org/1999/xlink" overflow="hidden"><defs><clipPath id="clip0"><path d="M0 0 1280 0 1280 720 0 720Z" fill-rule="evenodd" clip-rule="evenodd"/></clipPath></defs><g clip-path="url(#clip0)"><rect x="0" y="0" width="1280" height="720" fill="#FFFFFF"/><rect x="0" y="693" width="1280" height="27" fill="#595959"/><text fill="#595959" font-family="Arial,Arial_MSFontService,sans-serif" font-weight="700" font-size="64" transform="translate(152.23 82)">Free PPT Templates: Allppt.com<tspan font-weight="400" font-size="32" x="54.8234" y="55">You can download professional PowerPoint diagrams for free</tspan><tspan fill="#FFFFFF" font-weight="400" font-size="13" x="358.187" y="629">www.free</tspan><tspan fill="#FFFFFF" font-weight="400" font-size="13" x="413.687" y="629">-</tspan><tspan fill="#FFFFFF" font-weight="400" font-size="13" x="418.187" y="629">powerpoint</tspan><tspan fill="#FFFFFF" font-weight="400" font-size="13" x="483.02" y="629">-</tspan><tspan fill="#FFFFFF" font-weight="400" font-size="13" x="487.52" y="629">templates</tspan><tspan fill="#FFFFFF" font-weight="400" font-size="13" x="545.02" y="629">-</tspan><tspan fill="#FFFFFF" font-weight="400" font-size="13" x="549.52" y="629">design.com</tspan></text><path d="M510.67 711.688 769.67 711.688 769.67 712.688 510.67 712.688Z" fill="#FFFFFF" fill-rule="evenodd"/><path d="M1040.38 244.028C1108.85 242.581 1165.53 296.913 1166.97 365.381 1168.42 433.849 1114.09 490.526 1045.62 491.972 1043.66 492.014 1041.7 492.009 1039.75 491.957L1040.01 481.939C1102.94 483.59 1155.29 433.917 1156.94 370.99 1158.59 308.063 1108.92 255.712 1045.99 254.061 1044.19 254.014 1042.39 254.009 1040.59 254.047Z" fill="#57687C" fill-rule="evenodd"/><rect x="254" y="244" width="794" height="9" fill="#57687C"/><rect x="445" y="482" width="601" height="10" fill="#57687C"/><rect x="175" y="208" width="79" height="80" stroke="#57687C" stroke-width="4" stroke-miterlimit="8" fill="#FFFFFF"/><rect x="555" y="208" width="79" height="80" stroke="#0680C3" stroke-width="4" stroke-miterlimit="8" fill="#FFFFFF"/><rect x="931" y="208" width="80" height="80" stroke="#07A398" stroke-width="4" stroke-miterlimit="8" fill="#FFFFFF"/><rect x="367" y="447" width="79" height="79" stroke="#FBA200" stroke-width="4" stroke-miterlimit="8" fill="#FFFFFF"/><rect x="747" y="447" width="79" height="79" stroke="#90C221" stroke-width="4" stroke-miterlimit="8" fill="#FFFFFF"/><path d="M384 248C384 235.297 394.074 225 406.5 225 418.926 225 429 235.297 429 248 429 260.703 418.926 271 406.5 271 394.074 271 384 260.703 384 248Z" fill="#57687C" fill-rule="evenodd"/><path d="M396 236 409 236 421 248 409 260 396 260 408 248Z" fill="#FFFFFF" fill-rule="evenodd"/><path d="M764 248C764 235.297 774.074 225 786.5 225 798.926 225 809 235.297 809 248 809 260.703 798.926 271 786.5 271 774.074 271 764 260.703 764 248Z" fill="#0680C3" fill-rule="evenodd"/><path d="M776 236 789 236 801 248 789 260 776 260 788 248Z" fill="#FFFFFF" fill-rule="evenodd"/><path d="M617 486.5C617 498.926 606.926 509 594.5 509 582.074 509 572 498.926 572 486.5 572 474.074 582.074 464 594.5 464 606.926 464 617 474.074 617 486.5Z" fill="#90C221" fill-rule="evenodd"/><path d="M605 499 592.5 499 580 486.5 592.5 474 605 474 592.5 486.5Z" fill="#FFFFFF" fill-rule="evenodd"/><path d="M1159.5 345C1171.93 345 1182 355.074 1182 367.5 1182 379.926 1171.93 390 1159.5 390 1147.07 390 1137 379.926 1137 367.5 1137 355.074 1147.07 345 1159.5 345Z" fill="#07A398" fill-rule="evenodd"/><path d="M1172 357 1172 369.5 1159.5 382 1147 369.5 1147 357 1159.5 369.5Z" fill="#FFFFFF" fill-rule="evenodd"/><text fill="#404040" font-family="Arial,Arial_MSFontService,sans-serif" font-weight="400" font-size="16" transform="translate(115.919 351)">You can simply impress your <tspan x="-11.5667" y="19">audience and add a unique zing </tspan><tspan x="35.2667" y="38">and appeal to your </tspan><tspan x="50.2667" y="57">Presentations.  </tspan><tspan font-weight="700" x="43.37" y="-22">Your Text  Here</tspan><tspan x="377.197" y="0">You can simply impress your </tspan><tspan x="365.63" y="19">audience and add a unique zing </tspan><tspan x="412.464" y="38">and appeal to your </tspan><tspan x="427.464" y="57">Presentations.  </tspan><tspan font-weight="700" x="420.567" y="-22">Your Text  Here</tspan><tspan x="753.472" y="0">You can simply impress your </tspan><tspan x="741.905" y="19">audience and add a unique zing </tspan><tspan x="788.738" y="38">and appeal to your </tspan><tspan x="803.738" y="57">Presentations.  </tspan><tspan font-weight="700" x="796.842" y="-22">Your Text  Here</tspan><tspan x="189.401" y="227">You can simply impress your </tspan><tspan x="177.835" y="246">audience and add a unique zing </tspan><tspan x="224.668" y="265">and appeal to your </tspan><tspan x="239.668" y="284">Presentations.  </tspan><tspan font-weight="700" x="232.771" y="205">Your Text  Here</tspan><tspan x="569.398" y="227">You can simply impress your </tspan><tspan x="557.831" y="246">audience and add a unique zing </tspan><tspan x="604.664" y="265">and appeal to your </tspan><tspan x="619.664" y="284">Presentations.  </tspan><tspan font-weight="700" x="612.768" y="205">Your Text  Here</tspan></text><path d="M599.159 248.678 614 260 576 260 590.893 248.899 594.889 252.837ZM614 234.443 614 258.67 599.837 248.162ZM576 234.336 590.163 248.055 576 258.563ZM576 233 614 233 594.889 251.416Z" fill="#0680C3" fill-rule="evenodd"/><path d="M212.473 253.045 205.346 264.455C211.205 268.114 218.629 268.147 224.519 264.538L217.49 253.065C216.771 253.525 215.916 253.782 215 253.782 214.069 253.782 213.201 253.516 212.473 253.045ZM215 245.679C213.166 245.679 211.679 247.166 211.679 249 211.679 250.834 213.166 252.321 215 252.321 216.834 252.321 218.321 250.834 218.321 249 218.321 247.166 216.834 245.679 215 245.679ZM223.697 232.987 217.272 244.817C218.772 245.607 219.782 247.186 219.782 249L219.765 249.166 233.211 249.633C233.451 242.73 229.767 236.284 223.697 232.987ZM206.442 232.912C200.344 236.156 196.604 242.569 196.784 249.474L210.23 249.124C210.218 249.083 210.218 249.042 210.218 249 210.218 247.171 211.245 245.582 212.764 244.797ZM215 229C226.046 229 235 237.954 235 249 235 260.046 226.046 269 215 269 203.954 269 195 260.046 195 249 195 237.954 203.954 229 215 229Z" fill="#57687C" fill-rule="evenodd"/><path d="M975.867 245.521C979.096 245.521 981.714 248.211 981.714 251.53 981.714 254.849 979.096 257.539 975.867 257.539 972.638 257.539 970.02 254.849 970.02 251.53 970.02 248.211 972.638 245.521 975.867 245.521ZM975.867 243.146C971.362 243.146 967.71 246.9 967.71 251.53 967.71 256.16 971.362 259.914 975.867 259.914 980.372 259.914 984.024 256.16 984.024 251.53 984.024 246.9 980.372 243.146 975.867 243.146ZM966.263 241.283 966.263 243.174 968.839 243.174 968.839 241.283ZM983.837 240.677 983.837 243.174 988.788 243.174 988.788 240.677ZM972.003 234.326 972.003 238.305 979.731 238.305 979.731 234.326ZM970.32 233 981.415 233C982.015 233 982.502 233.5 982.502 234.117L982.502 238.305 987.974 238.305C989.645 238.305 991 239.698 991 241.416L991 259.889C991 261.607 989.645 263 987.974 263L956.026 263C954.355 263 953 261.607 953 259.889L953 241.416C953 239.698 954.355 238.305 956.026 238.305L956.662 238.305 956.662 236.838C956.662 236.529 956.905 236.279 957.205 236.279L962.753 236.279C963.053 236.279 963.296 236.529 963.296 236.838L963.296 238.305 969.233 238.305 969.233 234.117C969.233 233.5 969.72 233 970.32 233Z" fill="#07A398" fill-rule="evenodd"/><path d="M395.268 473.446C394.358 473.446 393.62 474.191 393.62 475.11 393.62 476.029 394.358 476.774 395.268 476.774 396.178 476.774 396.915 476.029 396.915 475.11 396.915 474.191 396.178 473.446 395.268 473.446ZM406.109 469.422C404.238 469.422 402.721 470.955 402.721 472.845 402.721 474.735 404.238 476.267 406.109 476.267 407.98 476.267 409.497 474.735 409.497 472.845 409.497 470.955 407.98 469.422 406.109 469.422ZM406.109 466C409.851 466 412.884 469.064 412.884 472.845 412.884 475.56 411.32 477.905 409.041 478.99L413.671 478.99C415.585 478.99 417.137 480.558 417.137 482.492L417.137 483.935 418.971 483.935C419.409 483.935 419.775 484.245 419.849 484.663L426 479.495 426 499.495 419.849 494.327C419.775 494.745 419.409 495.054 418.971 495.054L417.137 495.054 417.137 496.498C417.137 498.432 415.585 500 413.671 500L390.466 500C388.552 500 387 498.432 387 496.498L387 482.492C387 480.558 388.552 478.99 390.466 478.99L393.554 478.99C392.081 478.333 391.056 476.842 391.056 475.11 391.056 472.76 392.942 470.855 395.268 470.855 397.594 470.855 399.48 472.76 399.48 475.11 399.48 476.842 398.455 478.333 396.981 478.99L403.177 478.99C400.898 477.905 399.333 475.56 399.333 472.845 399.333 469.064 402.367 466 406.109 466Z" fill="#FBA200" fill-rule="evenodd"/><path d="M800.54 472.749 802.978 472.749C804.647 472.749 806 474.118 806 475.807L806 495.942C806 497.631 804.647 499 802.978 499L800.54 499ZM769.022 472.749 771.46 472.749 771.46 499 769.022 499C767.353 499 766 497.631 766 495.942L766 475.807C766 474.118 767.353 472.749 769.022 472.749ZM783.75 469.191C783.051 469.191 782.484 469.764 782.484 470.472L782.484 472.749 789.516 472.749 789.516 470.472C789.516 469.764 788.949 469.191 788.25 469.191ZM781.976 467 790.024 467C790.939 467 791.681 467.751 791.681 468.677L791.681 472.749 798.303 472.749 798.303 499 773.697 499 773.697 472.749 780.319 472.749 780.319 468.677C780.319 467.751 781.061 467 781.976 467Z" fill="#90C221" fill-rule="evenodd"/></g></svg>