<?xml version="1.0"?>
<svg version="1.1" id="圖層_1" xmlns="http://www.w3.org/2000/svg" x="0" y="0" viewBox="0 0 100 100" xml:space="preserve"><path d="M50 45.6c-17.7 0-32 6-32 13.3v17.8C18 84 32.3 90 50 90s32-6 32-13.3V58.9c0-7.4-14.3-13.3-32-13.3z" stroke-linecap="round" stroke-linejoin="round" fill="#e0e0e0" stroke="#333" stroke-width="3.5" stroke-miterlimit="10"/><path d="M50 27.8c-17.7 0-32 6-32 13.3v17.8c0 7.4 14.3 13.3 32 13.3s32-6 32-13.3V41.1c0-7.4-14.3-13.3-32-13.3z" stroke-linecap="round" stroke-linejoin="round" fill="#e0e0e0" stroke="#333" stroke-width="3.5" stroke-miterlimit="10"/><path d="M50 10c-17.7 0-32 6-32 13.3v17.8c0 7.4 14.3 13.3 32 13.3s32-6 32-13.3V23.3C82 16 67.7 10 50 10z" stroke-linecap="round" stroke-linejoin="round" fill="#e0e0e0" stroke="#333" stroke-width="3.5" stroke-miterlimit="10"/><ellipse cx="50" cy="23.3" rx="32" ry="13.3" stroke-linecap="round" stroke-linejoin="round" fill="#e0e0e0" stroke="#333" stroke-width="3.5" stroke-miterlimit="10"/><metadata xmlns:d="https://loading.io/stock/"><d:name>data</d:name><d:tags>data,harddisk,hard drive,storage,database,hdd,ssd,memory</d:tags><d:license>by</d:license><d:slug>ukdlcn</d:slug></metadata></svg>