<?xml version="1.0"?>
<svg version="1.1" id="圖層_1" xmlns="http://www.w3.org/2000/svg" x="0" y="0" viewBox="0 0 100 100" xml:space="preserve"><path fill="none" stroke="#333" stroke-width="4.881" stroke-miterlimit="10" d="M10 22.4h80"/><path d="M69.8 31.5H59.4c-2.2 0-3.9-1.8-3.9-3.9V17.1c0-2.2 1.8-3.9 3.9-3.9h10.4c2.2 0 3.9 1.8 3.9 3.9v10.4c0 2.2-1.7 4-3.9 4z" fill="#e15b64" stroke="#333" stroke-width="4.643" stroke-miterlimit="10"/><path fill="none" stroke="#333" stroke-width="4.881" stroke-miterlimit="10" d="M90 50H10"/><path d="M30.2 59.2h10.4c2.2 0 3.9-1.8 3.9-3.9V44.8c0-2.2-1.8-3.9-3.9-3.9H30.2c-2.2 0-3.9 1.8-3.9 3.9v10.4c0 2.2 1.7 4 3.9 4z" fill="#f47e60" stroke="#333" stroke-width="4.643" stroke-miterlimit="10"/><path fill="none" stroke="#333" stroke-width="4.881" stroke-miterlimit="10" d="M10 77.6h80"/><path d="M69.8 86.8H59.4c-2.2 0-3.9-1.8-3.9-3.9V72.4c0-2.2 1.8-3.9 3.9-3.9h10.4c2.2 0 3.9 1.8 3.9 3.9v10.4c0 2.2-1.7 4-3.9 4z" fill="#f8b26a" stroke="#333" stroke-width="4.643" stroke-miterlimit="10"/><metadata xmlns:d="https://loading.io/stock/"><d:name>settings</d:name><d:tags>slider,tweak,tune,control,panel,config,settings,web application</d:tags><d:license>by</d:license><d:slug>kvo3wt</d:slug></metadata></svg>